<?xml version="1.0" encoding="utf-8"?>
<svg
	version="1.1"
	xmlns="http://www.w3.org/2000/svg"
	xmlns:xlink="http://www.w3.org/1999/xlink"
	x="0%" y="0%"
	width="100%" height="100%"
	viewBox="0 0 24.0 24.0"
	enable-background="new 0 0 24.0 24.0"
	xml:space="preserve">
	<path
		fill="#000000"
		stroke="#000000"
		fill-opacity="0.988"
		stroke-opacity="1.000"
		fill-rule="nonzero"
		stroke-width="0.036457922"
		stroke-linejoin="miter"
		stroke-linecap="square"
		d="M4.59,20.32L17.09,2.50C17.43,1.91,18.86,2.41,18.32,3.29L5.67,21.10C5.32,21.63,4.06,21.05,4.59,20.32z"/>
	<path
		fill="#050505"
		stroke="#000101"
		fill-opacity="1.000"
		stroke-opacity="1.000"
		fill-rule="nonzero"
		stroke-width="0.024073433"
		stroke-linejoin="miter"
		stroke-linecap="square"
		d="M16.65,8.39C17.26,8.39,17.75,8.90,17.75,9.51C17.75,10.13,17.26,10.64,16.65,10.64C16.04,10.64,15.55,10.13,15.55,9.51C15.55,8.90,16.04,8.39,16.65,8.39z"/>
	<path
		fill="#000000"
		stroke="#000000"
		fill-opacity="0.996"
		stroke-opacity="1.000"
		fill-rule="nonzero"
		stroke-width="0.024073433"
		stroke-linejoin="miter"
		stroke-linecap="square"
		d="M6.57,12.09C7.18,12.09,7.68,12.60,7.68,13.22C7.68,13.83,7.18,14.34,6.57,14.34C5.96,14.34,5.47,13.83,5.47,13.22C5.47,12.60,5.96,12.09,6.57,12.09z"/>
	<path
		fill="#050505"
		stroke="#000000"
		fill-opacity="0.988"
		stroke-opacity="1.000"
		fill-rule="nonzero"
		stroke-width="0.036457922"
		stroke-linejoin="miter"
		stroke-linecap="square"
		d="M12.40,18.13C13.96,21.47,18.99,20.06,17.40,16.52C16.33,14.22,13.84,13.59,10.35,12.13C5.04,10.49,4.39,7.44,4.53,5.87C4.66,4.49,5.64,2.83,7.46,2.16C8.62,1.62,10.79,1.85,12.04,3.12C12.77,4.01,11.50,4.90,10.89,4.31C9.59,3.15,8.00,3.03,7.00,3.98C6.01,4.76,5.93,6.48,7.27,7.82C8.74,9.15,9.77,9.73,14.43,11.13C17.36,12.47,19.79,14.00,19.54,17.88C19.20,22.12,12.54,23.59,10.56,19.28C9.86,17.61,11.95,16.95,12.40,18.13z"/>
</svg>