<?xml version="1.0" encoding="utf-8"?>
<svg
	version="1.1"
	xmlns="http://www.w3.org/2000/svg"
	xmlns:xlink="http://www.w3.org/1999/xlink"
	x="0%" y="0%"
	width="100%" height="100%"
	viewBox="0 0 24.0 24.0"
	enable-background="new 0 0 24.0 24.0"
	xml:space="preserve">
	<path
		fill="#000000"
		stroke="#000000"
		fill-opacity="1.000"
		stroke-opacity="1.000"
		fill-rule="nonzero"
		stroke-width="0.0"
		stroke-linejoin="miter"
		stroke-linecap="square"
		d="M15.96,20.94C14.32,21.58,12.60,21.17,11.44,20.36C10.12,19.48,8.83,17.17,9.80,14.68L2.11,6.95L4.63,4.41L12.28,12.05C12.91,11.66,14.93,11.47,15.95,11.88C17.77,12.50,19.98,14.93,18.67,18.36L17.58,17.29C17.14,18.65,16.22,19.52,14.89,19.80L15.96,20.94zM21.95,3.05L22.00,6.24L17.53,6.25L17.54,17.21C17.07,18.75,16.20,19.41,14.87,19.76C13.09,20.02,11.26,18.61,11.03,17.47C10.56,16.40,10.99,14.64,12.06,13.78C13.30,12.64,14.97,12.88,15.92,13.47L15.99,3.05L21.95,3.05zM17.75,13.08C17.09,12.82,16.85,12.21,15.97,11.89"/>
</svg>