<?xml version="1.0" encoding="utf-8"?>
<svg
	version="1.1"
	xmlns="http://www.w3.org/2000/svg"
	xmlns:xlink="http://www.w3.org/1999/xlink"
	x="0px" y="0px"
	width="24.0px" height="24.0px"
	viewBox="0 0 24.0 24.0"
	enable-background="new 0 0 24.0 24.0"
	xml:space="preserve">
	<path
		fill="#020202"
		stroke="#000000"
		fill-opacity="1.000"
		stroke-opacity="1.000"
		fill-rule="nonzero"
		stroke-width="0.024"
		stroke-linejoin="round"
		stroke-linecap="square"
		d="M12.25,7.70C12.61,7.69,12.83,7.33,12.85,7.12C12.90,6.68,12.90,6.51,12.91,6.28C12.94,5.81,12.98,5.59,13.11,5.20C13.22,4.78,13.42,4.47,13.62,4.23C13.95,3.87,14.14,3.66,14.44,3.50C14.62,3.39,14.76,3.32,14.96,3.24C15.07,3.22,15.10,3.16,15.01,3.01C14.91,2.80,14.81,2.61,14.67,2.41C14.51,2.22,14.39,2.11,14.23,2.16C13.52,2.37,12.69,3.24,12.39,4.39C12.16,5.04,12.16,5.80,12.20,6.37C12.22,6.87,12.20,7.20,12.25,7.70z"/>
	<path
		fill="#000000"
		stroke="#000000"
		fill-opacity="1.000"
		stroke-opacity="1.000"
		fill-rule="nonzero"
		stroke-width="0.024"
		stroke-linejoin="round"
		stroke-linecap="square"
		d="M13.31,18.60L13.26,18.23C11.09,18.17,10.34,17.69,9.75,17.28C9.28,16.94,8.82,16.37,8.65,15.72C8.51,15.24,8.52,14.43,8.66,13.83C8.84,13.13,9.11,12.64,9.90,11.98C10.41,11.51,11.39,10.83,12.64,10.09L12.82,11.43L13.28,11.40L13.33,9.59C15.49,8.26,16.08,6.66,16.15,5.48C16.31,3.97,15.93,2.22,14.82,1.81Q16.24,3.63,15.01,5.95C13.88,7.63,12.74,8.04,11.90,8.69C10.98,9.28,10.03,9.80,9.11,10.59C8.04,11.39,7.42,12.32,7.33,13.47C7.19,14.27,7.46,15.41,7.73,15.96C8.02,16.76,8.80,17.41,9.64,17.89C10.69,18.51,12.12,18.70,13.31,18.60z"/>
	<path
		fill="#000000"
		stroke="#000000"
		fill-opacity="0.980"
		stroke-opacity="1.000"
		fill-rule="nonzero"
		stroke-width="0.024"
		stroke-linejoin="round"
		stroke-linecap="square"
		d="M10.44,21.22C10.59,21.54,11.10,21.82,11.57,21.87C12.10,21.93,12.44,21.88,12.92,21.57C13.61,21.06,14.04,20.49,13.80,18.73L13.08,13.33C11.28,13.77,10.31,15.35,12.17,16.85C10.59,16.61,9.75,14.41,10.83,13.08C11.48,12.19,12.83,11.81,13.65,11.95C14.86,12.11,15.96,12.65,16.57,13.96C16.94,14.90,16.82,15.94,16.27,16.78C15.60,17.64,15.17,17.89,14.67,18.15L14.68,17.64C15.29,17.27,16.00,16.37,15.91,15.13C15.85,14.52,15.31,13.17,13.67,13.21L14.47,18.89C14.61,20.10,14.57,20.83,13.80,21.57C13.39,22.03,12.76,22.36,11.97,22.31C11.26,22.38,10.58,21.98,10.18,21.46C9.77,21.04,9.56,20.29,9.89,19.81C10.20,19.32,10.82,19.31,11.23,19.49C11.53,19.61,11.85,20.09,11.66,20.58C11.40,21.10,10.84,21.24,10.44,21.22z"/>
</svg>